<svg xmlns="http://www.w3.org/2000/svg" width="305.726" height="93.925" viewBox="0 0 305.726 93.925"><defs><style>.a{fill:#15115e;}.b{fill:#07b5ff;}</style></defs><g transform="translate(-473 -1847.744)"><path class="a" d="M20.726,106.9,0,36.773H15.842L30.962,90.7h.2L47.482,36.773H63.325L40.221,106.9Z" transform="translate(473 1833.526)"/><path class="a" d="M119.076,106.938V36.773h14.84v70.165Z" transform="translate(426.734 1833.526)"/><path class="a" d="M230.915,70.636c0,19.857-14.924,36.49-36,36.49s-36-16.633-36-36.49,14.923-36.49,36-36.49S230.915,50.778,230.915,70.636Zm-57.073,0c0,11.793,7.866,21.975,21.075,21.975s21.074-10.182,21.074-21.975-7.865-21.975-21.074-21.975S173.842,58.841,173.842,70.636Z" transform="translate(411.252 1834.541)"/><path class="a" d="M420.3,106.938V36.773h14.839v25.26h19.052V36.773h14.84v70.165h-14.84V76.066H435.143v30.872Z" transform="translate(309.691 1833.526)"/><path class="a" d="M329.064,34.929l-6.008,8.458-6.138-8.453c-17.8,2.858-29.909,18.12-29.909,36,0,19.857,14.923,36.49,36,36.49s36-16.633,36-36.49C359.005,53.044,346.882,37.774,329.064,34.929Zm-6.057,57.985c-13.209,0-21.075-10.182-21.075-21.975s7.866-21.975,21.075-21.975,21.074,10.179,21.074,21.975S336.216,92.914,323.007,92.914Z" transform="translate(361.484 1834.239)"/><path class="b" d="M340.929,0,348.7,9.848l-7.669,10.8-7.767-10.7Z" transform="translate(343.514 1847.744)"/></g></svg>